<svg id="gym" xmlns="http://www.w3.org/2000/svg" width="512" height="512" viewBox="0 0 512 512">
  <path id="Path_71" data-name="Path 71" d="M306.691,364.188a10.009,10.009,0,1,0,7.07,2.934A10.06,10.06,0,0,0,306.691,364.188Zm0,0" fill="#525252"/>
  <path id="Path_72" data-name="Path 72" d="M475,0a37.041,37.041,0,0,0-37,37V65.168H74V37A37,37,0,0,0,0,37v77a37,37,0,0,0,74,0V85.168h45.719a29.859,29.859,0,0,0-1.719,10V176a50.056,50.056,0,0,0,50,50h27V476.652A35.385,35.385,0,0,0,230.344,512h.313A35.227,35.227,0,0,0,256,501.254a35.321,35.321,0,0,0,60.691-24.6v-64.32a10,10,0,0,0-20,0v64.32a15.346,15.346,0,1,1-30.691,0V338.574a10,10,0,1,0-20,0V476.652A15.362,15.362,0,0,1,230.656,492h-.312A15.362,15.362,0,0,1,215,476.652V304.668h81.691v29.664a10,10,0,0,0,20,0V297.1a9.978,9.978,0,0,0,.309-2.43V226h27a50.056,50.056,0,0,0,50-50V95.168a29.859,29.859,0,0,0-1.719-10H438V114a37,37,0,0,0,74,0V37A37.041,37.041,0,0,0,475,0ZM54,114a17,17,0,0,1-34,0V37a17,17,0,0,1,34,0Zm177,27a25,25,0,1,1,25,25A25.028,25.028,0,0,1,231,141Zm25-45a44.975,44.975,0,0,0-37.395,70H178V95.168a29.859,29.859,0,0,0-1.719-10H335.719a29.859,29.859,0,0,0-1.719,10V166H293.395A44.975,44.975,0,0,0,256,96Zm118-.832V176a30.033,30.033,0,0,1-30,30H307a10,10,0,0,0-10,10v68.668H215V216a10,10,0,0,0-10-10H168a30.033,30.033,0,0,1-30-30V95.168a10,10,0,0,1,20,0V176a10,10,0,0,0,10,10H344a10,10,0,0,0,10-10V95.168a10,10,0,0,1,20,0ZM492,114a17,17,0,0,1-34,0V37a17,17,0,1,1,34,0Zm0,0" fill="#525252"/>
</svg>
