<svg xmlns="http://www.w3.org/2000/svg" width="379.988" height="512.002" viewBox="0 0 379.988 512.002">
  <g id="healthcare" transform="translate(-66.007)">
    <path id="Path_73" data-name="Path 73" d="M393.5,155h-15a7.5,7.5,0,0,0,0,15h15a7.5,7.5,0,0,1,0,15H324.953A27.545,27.545,0,0,0,298.5,165h-80a27.545,27.545,0,0,0-26.452,20H123.5a7.5,7.5,0,0,1,0-15h15a7.5,7.5,0,1,0,0-15h-15a22.5,22.5,0,0,0,0,45H191V326.036a7.5,7.5,0,0,0,7.5,7.5H221V489.094l-24.872,8.291a7.5,7.5,0,1,0,4.743,14.23l30-10A7.5,7.5,0,0,0,236,494.5V339.929a52.452,52.452,0,0,0,45,0V494.5a7.5,7.5,0,0,0,5.128,7.115l30,10a7.5,7.5,0,1,0,4.743-14.23L296,489.094V333.537h22.5a7.5,7.5,0,0,0,7.5-7.5V200h67.5a22.5,22.5,0,0,0,0-45ZM281,285H236V180h45Zm-75,33.536V192.5A12.514,12.514,0,0,1,218.5,180H221V318.536ZM258.5,330a37.427,37.427,0,0,1-22.5-7.5V300h45v22.5A37.429,37.429,0,0,1,258.5,330ZM311,318.537H296V180h2.5A12.514,12.514,0,0,1,311,192.5Z" fill="#525252"/>
    <path id="Path_74" data-name="Path 74" d="M118.507,140a7.5,7.5,0,0,0,3.526-.88c2-1.065,48.974-26.511,48.974-63.546a33,33,0,0,0-52.5-26.589,33,33,0,0,0-52.5,26.589c0,37.036,46.975,62.481,48.974,63.546A7.5,7.5,0,0,0,118.507,140Zm-37.5-64.427a18,18,0,0,1,31.768-11.557,7.5,7.5,0,0,0,11.464,0,18,18,0,0,1,31.768,11.557c0,23.079-27.551,42.118-37.5,48.239C108.554,117.688,81.007,98.65,81.007,75.573Z" fill="#525252"/>
    <path id="Path_75" data-name="Path 75" d="M438.495,65h-22.5V42.5a7.5,7.5,0,0,0-7.5-7.5h-30a7.5,7.5,0,0,0-7.5,7.5V65h-22.5a7.5,7.5,0,0,0-7.5,7.5v30a7.5,7.5,0,0,0,7.5,7.5h22.5v22.5a7.5,7.5,0,0,0,7.5,7.5h30a7.5,7.5,0,0,0,7.5-7.5V110h22.5a7.5,7.5,0,0,0,7.5-7.5v-30A7.5,7.5,0,0,0,438.495,65Zm-7.5,30h-22.5a7.5,7.5,0,0,0-7.5,7.5V125h-15V102.5a7.5,7.5,0,0,0-7.5-7.5h-22.5V80h22.5a7.5,7.5,0,0,0,7.5-7.5V50h15V72.5a7.5,7.5,0,0,0,7.5,7.5h22.5Z" fill="#525252"/>
    <path id="Path_76" data-name="Path 76" d="M258.5,150A52.559,52.559,0,0,0,311,97.5v-45a25.1,25.1,0,0,0-8.1-18.391A24.929,24.929,0,0,0,276.892,8.1a24.928,24.928,0,0,0-36.782,0A24.929,24.929,0,0,0,214.1,34.109,25.1,25.1,0,0,0,206,52.5v45A52.559,52.559,0,0,0,258.5,150ZM221,52.5a9.917,9.917,0,0,1,4.94-8.606,7.5,7.5,0,0,0,3.451-8.331,9.966,9.966,0,0,1,12.171-12.172,7.5,7.5,0,0,0,8.331-3.45,9.967,9.967,0,0,1,17.213,0,7.5,7.5,0,0,0,8.331,3.451A9.967,9.967,0,0,1,287.61,35.563a7.5,7.5,0,0,0,3.451,8.331A9.916,9.916,0,0,1,296,52.5v8.308a52.383,52.383,0,0,0-75,0ZM258.5,60A37.5,37.5,0,1,1,221,97.5,37.542,37.542,0,0,1,258.5,60Z" fill="#525252"/>
  </g>
</svg>
