<svg id="ice-cream-shop" xmlns="http://www.w3.org/2000/svg" width="480" height="384" viewBox="0 0 480 384">
  <path id="Path_77" data-name="Path 77" d="M192,336H448V144H192Zm16-176H432V288H372.945L399.2,235.574a7.987,7.987,0,0,0-.352-7.773c-.137-.215-.328-.387-.473-.586a40,40,0,1,0-76.68,0c-.145.191-.328.352-.465.57a8.007,8.007,0,0,0-.352,7.773L347.055,288H280V272h16a8,8,0,0,0,8-8V208a32,32,0,0,0-64,0v56a8,8,0,0,0,8,8h16v16H208Zm171.055,80L360,278.113,340.946,240Zm-41.5-16a24,24,0,1,1,44.9,0ZM256,256V208a16,16,0,0,1,32,0v48Zm-48,48H432v16H208Zm0,0" fill="#525252"/>
  <path id="Path_78" data-name="Path 78" d="M56,240H88v16H56Zm0,0" fill="#525252"/>
  <path id="Path_79" data-name="Path 79" d="M56,288H88v16H56Zm0,0" fill="#525252"/>
  <path id="Path_80" data-name="Path 80" d="M120,240h32v16H120Zm0,0" fill="#525252"/>
  <path id="Path_81" data-name="Path 81" d="M120,288h32v16H120Zm0,0" fill="#525252"/>
  <path id="Path_82" data-name="Path 82" d="M0,0V384H480V0ZM288,16h64V80a32,32,0,0,1-64,0Zm-80,0h64V80a32,32,0,0,1-64,0Zm-80,0h64V80a32,32,0,0,1-64,0ZM16,16h96V80a32,32,0,0,1-32,32H48A32,32,0,0,1,16,80ZM160,368H48V336H160ZM48,320V224H96v96Zm112,0H112V224h48Zm0-112H48V160H160ZM464,368H176V144H32V368H16V115.68A47.761,47.761,0,0,0,48,128H80a48.006,48.006,0,0,0,40-21.52,47.935,47.935,0,0,0,80,0,47.935,47.935,0,0,0,80,0,47.935,47.935,0,0,0,80,0A48.006,48.006,0,0,0,400,128h32a47.761,47.761,0,0,0,32-12.32Zm0-288a32,32,0,0,1-32,32H400a32,32,0,0,1-32-32V16h96Zm0,0" fill="#525252"/>
  <path id="Path_83" data-name="Path 83" d="M80,64H96V32H48V48H80Zm0,0" fill="#525252"/>
  <path id="Path_84" data-name="Path 84" d="M432,64h16V32H400V48h32Zm0,0" fill="#525252"/>
  <path id="Path_85" data-name="Path 85" d="M160,64h16V32H144V48h16Zm0,0" fill="#525252"/>
  <path id="Path_86" data-name="Path 86" d="M240,64h16V32H224V48h16Zm0,0" fill="#525252"/>
  <path id="Path_87" data-name="Path 87" d="M320,64h16V32H304V48h16Zm0,0" fill="#525252"/>
</svg>
