<svg xmlns="http://www.w3.org/2000/svg" width="62" height="62" viewBox="0 0 62 62">
  <g id="office" transform="translate(-1 -1)">
    <path id="Path_88" data-name="Path 88" d="M43,32a1,1,0,0,0-1-1H39V30a3,3,0,0,0-3-3H28.744l-.6-2H42a1,1,0,0,0,1-1V2a1,1,0,0,0-1-1H2A1,1,0,0,0,1,2V24a1,1,0,0,0,1,1H20.96l1.714,6H14a1,1,0,0,0-1,1V43.1A5.009,5.009,0,0,0,9,48v2a3,3,0,0,1-2,2.816V52a1,1,0,0,0-1-1H2a1,1,0,0,0-1,1v4a1,1,0,0,0,1,1H6a1,1,0,0,0,1-1V54.9A5.009,5.009,0,0,0,11,50V48a3,3,0,0,1,2-2.816V62a1,1,0,0,0,1,1H38a1,1,0,0,0,1-1V37h3a1,1,0,0,0,1-1ZM5,55H3V53H5ZM3,23V3H41V23H27.544l-.6-2H38a1,1,0,0,0,1-1V6a1,1,0,0,0-1-1H6A1,1,0,0,0,5,6V20a1,1,0,0,0,1,1H19.817l.571,2ZM7,11h4v8H7Zm6,2h2v6H13Zm8,4H20a1,1,0,0,0-.961,1.274l.207.726H17V11h4Zm1-8H16a1,1,0,0,0-1,1v1H13V10a1,1,0,0,0-1-1H7V7H37V9H34a1,1,0,0,0-1,1v1H30a1,1,0,0,0-1,1v7H26.344l-.386-1.287A1,1,0,0,0,25,17H23V10A1,1,0,0,0,22,9ZM33,19H31V13h2Zm4-8v8H35V11ZM21.326,19h2.93l2.786,9.287A1,1,0,0,0,28,29h8a1,1,0,0,1,1,1v1H24.754ZM37,61H15V37H37Zm4-26H15V33H41Z" fill="#525252"/>
    <path id="Path_89" data-name="Path 89" d="M63,44V21a3,3,0,0,0-6,0V37H48a3,3,0,0,0-3,3v1H44a1,1,0,0,0-1,1v4a1,1,0,0,0,1,1h.867L43.008,61.876A1,1,0,0,0,44,63h4a1,1,0,0,0,.992-.876L50.883,47h4.235l1.891,15.124A1,1,0,0,0,58,63h4a1,1,0,0,0,.993-1.124L61.106,46.783A3,3,0,0,0,63,44ZM47,40a1,1,0,0,1,1-1h9v2H47Zm-2,3H58a1,1,0,0,0,1-1V21a1,1,0,0,1,2,0V44a1,1,0,0,1-1,1H45Zm2.117,18H45.133l1.75-14h1.985Zm11.766,0-1.75-14h1.985l1.75,14Z" fill="#525252"/>
  </g>
</svg>
