<svg xmlns="http://www.w3.org/2000/svg" width="464" height="480.017" viewBox="0 0 464 480.017">
  <path id="shopping" d="M455.729,362.062l32-120A8,8,0,0,0,480,232H446.939l-7.019-49.132A8,8,0,0,0,432,176H408v-4a28,28,0,1,0-56,0v4H328a8,8,0,0,0-7.92,6.868L313.061,232H282.8l-3.144-10.329A8,8,0,0,0,272,216H256a32.037,32.037,0,0,0-32-32h-7.338L184,178.556V121.889A36.722,36.722,0,0,0,172.305,94.9,31.793,31.793,0,0,0,176,80V59.314l.687-.687A24.971,24.971,0,0,0,159.029,16H144a32.037,32.037,0,0,0-32,32V80a31.944,31.944,0,0,0,1.066,8.186A53.314,53.314,0,0,0,64,141.255V274.78A64.327,64.327,0,0,0,70.757,303.4l22.392,44.783-51.087,62.44L26.343,426.343a8,8,0,0,0-.417,10.863l48,56a8,8,0,0,0,9.652,1.949l16-8a8,8,0,0,0,4.313-8.471l-7.323-43.938,26.574-26.573L152,465.889V488a8,8,0,0,0,8,8h80a8,8,0,0,0,8-8V472a8,8,0,0,0-3.883-6.86L206.6,442.633l-31.223-89.764A63.768,63.768,0,0,0,184,320.8V240h48a23.943,23.943,0,0,0,17.869-8h16.2l54.274,178.329A8,8,0,0,0,328,416H448a16,16,0,0,1,0,32H312v16h17.376a24,24,0,1,0,45.248,0h34.752a24,24,0,1,0,45.008-.641A32,32,0,0,0,448,400H333.928l-9.739-32H448a8,8,0,0,0,7.729-5.938ZM128,48a16.018,16.018,0,0,1,16-16h15.029a8.97,8.97,0,0,1,6.343,15.313l-.686.687H144a8,8,0,0,0-4.437,1.343L128,57.052Zm0,28.281L146.422,64H160V80a16,16,0,0,1-32,0ZM117.255,104h5.613a31.9,31.9,0,0,0,38.665,2.75A20.815,20.815,0,0,1,168,121.889v49.819l-41.926-48.914-12.148,10.412,32.1,37.452L120,196.686,90.912,167.6A37.254,37.254,0,0,1,117.255,104ZM80,179.314,116.686,216H80ZM82.009,478.05,42.9,432.418l7.032-7.031,30.921,12.368,6.289,37.732Zm4.064-55.437L61.1,412.624l39.891-48.755L115.6,393.087ZM232,476.529V480H168V469.416L199.286,456.9ZM189.934,443.41l-26.07,10.428-78.8-157.591A48.25,48.25,0,0,1,80,274.78V232h53.252a39.7,39.7,0,0,0,24,8H168v80.8a48.139,48.139,0,0,1-.777,8.61l-23.668-68.042-15.111,5.256ZM232,224H157.255a23.843,23.843,0,0,1-16.971-7.03l-8.97-8.97,25.157-25.157,5.454,6.363a8.009,8.009,0,0,0,4.759,2.686l48,8A8.023,8.023,0,0,0,216,200h8a16.018,16.018,0,0,1,16,16,8.009,8.009,0,0,1-8,8ZM352,480a8,8,0,1,1,8-8,8,8,0,0,1-8,8Zm80,0a8,8,0,1,1,8-8,8,8,0,0,1-8,8ZM368,172a12,12,0,0,1,24,0v4H368Zm-33.061,20H352v16h16V192h24v16h16V192h17.061l5.714,40H329.224Zm-15.62,160L287.667,248h181.92L441.854,352Z" transform="translate(-24 -16)" fill="#525252"/>
</svg>
