<svg xmlns="http://www.w3.org/2000/svg" width="205.452" height="179.476" viewBox="0 0 205.452 179.476">
  <path id="shop" d="M113.131,59.676h15.114V38.9h20.781V23.781H128.244V3H113.131V23.781H92.349V38.9h20.781ZM186.81,21.892V73.846L68.262,94.816,45.119,3H9.7a9.446,9.446,0,1,0,0,18.892h20.97l30.511,122.8H186.81V125.8H75.913L72.8,113.236,205.7,89.715V21.892ZM64.011,154.137A14.169,14.169,0,1,0,78.18,168.306a14.169,14.169,0,0,0-14.169-14.169Zm113.353,0a14.169,14.169,0,1,0,14.169,14.169A14.169,14.169,0,0,0,177.364,154.137Z" transform="translate(-0.25 -3)" fill="#525252"/>
</svg>
